<svg width="6" height="14" viewBox="0 0 6 14" fill="none" xmlns="http://www.w3.org/2000/svg">
<path d="M4.41528 0.4375C4.08903 0.4375 3.77614 0.567103 3.54545 0.797797C3.31475 1.02849 3.18515 1.34138 3.18515 1.66763C3.18515 1.99388 3.31475 2.30677 3.54545 2.53747C3.77614 2.76816 4.08903 2.89777 4.41528 2.89777C4.74153 2.89777 5.05442 2.76816 5.28512 2.53747C5.51581 2.30677 5.64541 1.99388 5.64541 1.66763C5.64541 1.34138 5.51581 1.02849 5.28512 0.797797C5.05442 0.567103 4.74153 0.4375 4.41528 0.4375ZM4.12005 4.34932C3.14414 4.43133 0.478856 6.55536 0.478856 6.55536C0.314838 6.67837 0.364044 6.67017 0.495258 6.8998C0.626472 7.12122 0.610071 7.13762 0.765887 7.03101C0.929905 6.9244 1.20053 6.75218 1.65158 6.47335C3.39017 5.35803 1.93041 7.93311 1.18413 12.2714C0.888901 14.42 2.82431 13.3129 3.32456 12.9849C3.81662 12.665 5.13696 11.7547 5.26817 11.6645C5.44859 11.5415 5.31738 11.4431 5.17796 11.2381C5.07955 11.0987 4.98114 11.1971 4.98114 11.1971C4.44808 11.5497 3.47218 12.2878 3.34097 11.8203C3.18515 11.3529 4.18566 8.14633 4.73512 5.94029C4.82533 5.41544 5.07135 4.26731 4.12005 4.34932Z" fill="#1270E2"/>
</svg>
